<?xml version="1.0" encoding="UTF-8"?>
<svg version="1.1" xmlns="http://www.w3.org/2000/svg" width="512" height="512">
<path d="M0 0 C3.25735215 1.56081457 5.55157785 3.6154184 8.27734375 5.953125 C15.23242045 11.7949809 22.38876594 16.41947992 30.22802734 20.96972656 C45.98327395 30.13025848 58.72734094 40.41450501 63.6875 58.5078125 C67.12183302 73.72381575 63.9316828 87.57336255 56.328125 100.94140625 C54.80221587 104.45548522 54.77956957 105.44041126 56 109 C56.14864502 109.63107666 56.29729004 110.26215332 56.45043945 110.91235352 C57.64134678 115.16431533 58.98042383 117.3983609 62.80859375 119.6875 C64.3398486 120.48134833 65.88365703 121.25132876 67.4375 122 C69.07748115 122.85039683 70.71550398 123.70458074 72.3515625 124.5625 C73.14981445 124.975 73.94806641 125.3875 74.77050781 125.8125 C96.80056794 137.54642603 118.42482677 155.21479111 126.08984375 179.45703125 C130.68304685 197.33701069 127.27406994 214.4564881 118.12353516 230.21240234 C111.91542261 240.08980348 102.31317966 247.73817364 92 253 C91.34 253 90.68 253 90 253 C92.48607284 260.96482916 94.97281558 268.92944876 97.46034336 276.89382362 C98.84159872 281.31630274 100.22237254 285.73893178 101.60274696 290.16168594 C102.49461908 293.01867409 103.38717732 295.87544775 104.27970505 298.73223114 C104.93986986 300.84664167 105.59884749 302.96141967 106.25772095 305.07623291 C108.20674858 311.32440239 110.17332461 317.56525264 112.21435547 323.78417969 C112.54507553 324.79757416 112.87579559 325.81096863 113.21653748 326.85507202 C113.81747797 328.68900418 114.42549348 330.52064155 115.04237366 332.34927368 C116.45172481 336.65846019 117.56554196 340.40634266 117 345 C116.278125 345.721875 115.55625 346.44375 114.8125 347.1875 C112.69015649 349.80382838 112.69015649 349.80382838 113.3671875 352.51171875 C113.91918007 354.43843566 114.50592903 356.35549605 115.125 358.26171875 C116.16817861 361.52630895 116.62267439 364.60406947 117 368 C117.9075 367.9175 118.815 367.835 119.75 367.75 C123 368 123 368 124.9921875 369.36328125 C128.02026675 373.33984446 129.05123216 377.66099426 130.375 382.4375 C130.67245117 383.4879248 130.96990234 384.53834961 131.27636719 385.62060547 C139.53593426 415.60871481 144.1331203 446.11452025 144.35009766 477.20385742 C144.36678595 478.95203849 144.39424128 480.70014791 144.43212891 482.44799805 C144.48711328 485.01385596 144.5087807 487.57816268 144.5234375 490.14453125 C144.54610687 490.91553665 144.56877625 491.68654205 144.59213257 492.48091125 C144.56913225 498.43868456 142.68975917 502.35429583 139 507 C133.55849188 512.05282897 129.12833231 512.30216505 121.94140625 512.20703125 C116.4876688 511.82316925 113.95275906 510.0069701 110.25390625 506.09765625 C106.23246491 501.31588422 103.31499479 495.95701216 100.3125 490.5 C99.70962158 489.41444824 99.10674316 488.32889648 98.4855957 487.21044922 C84.70209003 462.10627009 84.70209003 462.10627009 81 451 C80.59910156 451.59425781 80.19820313 452.18851562 79.78515625 452.80078125 C59.38355115 482.54733925 33.19815438 494.87261256 -1.31152344 501.65039062 C-4.64056015 502.25847793 -7.9727236 502.8291109 -11.3125 503.375 C-12.33142334 503.54273926 -13.35034668 503.71047852 -14.40014648 503.88330078 C-30.95484493 506.41213088 -30.95484493 506.41213088 -35.625 503.1875 C-37 501 -37 501 -37 498 C-38.80597656 498.12568359 -38.80597656 498.12568359 -40.6484375 498.25390625 C-42.22393916 498.3570641 -43.79946109 498.45991266 -45.375 498.5625 C-46.1690625 498.61857422 -46.963125 498.67464844 -47.78125 498.73242188 C-53.7734375 499.11328125 -53.7734375 499.11328125 -56 498 C-56.3403125 499.1446875 -56.3403125 499.1446875 -56.6875 500.3125 C-58.37817305 503.77435435 -59.4547357 504.47667998 -63 506 C-66.29049091 506.20713732 -69.47896592 505.86467023 -72.75 505.5 C-74.19125244 505.35159668 -74.19125244 505.35159668 -75.66162109 505.20019531 C-107.45550321 501.62830899 -137.8186045 492.07603503 -166 477 C-167.15628906 476.38640625 -168.31257813 475.7728125 -169.50390625 475.140625 C-196.46234074 460.29661784 -221.04478609 439.02436461 -239 414 C-239.40734375 413.44231934 -239.8146875 412.88463867 -240.234375 412.31005859 C-264.14657569 379.28889854 -276.51343638 340.01465225 -276.3125 299.375 C-276.31034485 298.58663757 -276.3081897 297.79827515 -276.30596924 296.98602295 C-276.0815735 245.67981754 -255.38070022 198.8939994 -220 162 C-219.24396484 161.20311768 -219.24396484 161.20311768 -218.47265625 160.39013672 C-171.273676 110.85180551 -107.14158406 94.22627746 -41 91 C-41.21076172 90.36731201 -41.42152344 89.73462402 -41.63867188 89.08276367 C-45.96008326 75.53513899 -45.10069866 62.88262361 -39 50 C-36.37335676 44.92152115 -33.60354459 39.92316757 -30.81201172 34.93383789 C-26.90392837 27.89136682 -23.77538788 20.97748273 -21.24609375 13.33984375 C-19.53437066 8.75199659 -17.55357084 4.45941503 -13.9375 1.0625 C-9.29151878 -0.61796129 -4.87686737 -0.62319553 0 0 Z M14.0703125 284.7421875 C10.15038652 289.01712565 7.88679809 293.1638994 7.5 299 C7.93202827 306.12149831 11.8336602 311.55118204 16.91796875 316.29296875 C23.66055352 321.82112925 31.40392108 325.84165012 39.0625 329.9375 C39.81321777 330.33952637 40.56393555 330.74155273 41.33740234 331.15576172 C44.97131037 333.2524102 44.97131037 333.2524102 49 334 C47.7334063 325.79587266 46.11149403 317.74366151 44.1796875 309.671875 C43.91616486 308.55685608 43.65264221 307.44183716 43.38113403 306.29302979 C42.54945905 302.7777967 41.71232989 299.26388988 40.875 295.75 C40.30562636 293.34774231 39.73661265 290.94539928 39.16796875 288.54296875 C37.78280057 282.69432059 36.39316803 276.84674743 35 271 C28.16048006 271 18.75028331 280.30298689 14.0703125 284.7421875 Z " fill="#DAECFE" transform="translate(322,0)"/>
<path d="M0 0 C3.25735215 1.56081457 5.55157785 3.6154184 8.27734375 5.953125 C15.23242045 11.7949809 22.38876594 16.41947992 30.22802734 20.96972656 C45.98327395 30.13025848 58.72734094 40.41450501 63.6875 58.5078125 C67.12183302 73.72381575 63.9316828 87.57336255 56.328125 100.94140625 C54.80221587 104.45548522 54.77956957 105.44041126 56 109 C56.14864502 109.63107666 56.29729004 110.26215332 56.45043945 110.91235352 C57.64134678 115.16431533 58.98042383 117.3983609 62.80859375 119.6875 C64.3398486 120.48134833 65.88365703 121.25132876 67.4375 122 C69.07748115 122.85039683 70.71550398 123.70458074 72.3515625 124.5625 C73.14981445 124.975 73.94806641 125.3875 74.77050781 125.8125 C96.80056794 137.54642603 118.42482677 155.21479111 126.08984375 179.45703125 C130.68304685 197.33701069 127.27406994 214.4564881 118.12353516 230.21240234 C111.91542261 240.08980348 102.31317966 247.73817364 92 253 C91.34 253 90.68 253 90 253 C92.48607284 260.96482916 94.97281558 268.92944876 97.46034336 276.89382362 C98.84159872 281.31630274 100.22237254 285.73893178 101.60274696 290.16168594 C102.49461908 293.01867409 103.38717732 295.87544775 104.27970505 298.73223114 C104.93986986 300.84664167 105.59884749 302.96141967 106.25772095 305.07623291 C108.20674858 311.32440239 110.17332461 317.56525264 112.21435547 323.78417969 C112.54507553 324.79757416 112.87579559 325.81096863 113.21653748 326.85507202 C113.81747797 328.68900418 114.42549348 330.52064155 115.04237366 332.34927368 C116.45172481 336.65846019 117.56554196 340.40634266 117 345 C116.278125 345.721875 115.55625 346.44375 114.8125 347.1875 C112.69015649 349.80382838 112.69015649 349.80382838 113.3671875 352.51171875 C113.91918007 354.43843566 114.50592903 356.35549605 115.125 358.26171875 C116.16817861 361.52630895 116.62267439 364.60406947 117 368 C117.9075 367.9175 118.815 367.835 119.75 367.75 C123 368 123 368 124.9921875 369.36328125 C128.02026675 373.33984446 129.05123216 377.66099426 130.375 382.4375 C130.67245117 383.4879248 130.96990234 384.53834961 131.27636719 385.62060547 C139.53593426 415.60871481 144.1331203 446.11452025 144.35009766 477.20385742 C144.36678595 478.95203849 144.39424128 480.70014791 144.43212891 482.44799805 C144.48711328 485.01385596 144.5087807 487.57816268 144.5234375 490.14453125 C144.54610687 490.91553665 144.56877625 491.68654205 144.59213257 492.48091125 C144.56913225 498.43868456 142.68975917 502.35429583 139 507 C133.55849188 512.05282897 129.12833231 512.30216505 121.94140625 512.20703125 C116.4876688 511.82316925 113.95275906 510.0069701 110.25390625 506.09765625 C106.23246491 501.31588422 103.31499479 495.95701216 100.3125 490.5 C99.70962158 489.41444824 99.10674316 488.32889648 98.4855957 487.21044922 C84.70209003 462.10627009 84.70209003 462.10627009 81 451 C80.59910156 451.59425781 80.19820313 452.18851562 79.78515625 452.80078125 C59.38355115 482.54733925 33.19815438 494.87261256 -1.31152344 501.65039062 C-4.64056015 502.25847793 -7.9727236 502.8291109 -11.3125 503.375 C-12.33142334 503.54273926 -13.35034668 503.71047852 -14.40014648 503.88330078 C-30.76557075 506.38321811 -30.76557075 506.38321811 -35.625 503.375 C-37.43296709 500.25214775 -37.58122986 498.56003292 -37 495 C-35.7265625 492.4375 -35.7265625 492.4375 -33 490 C-29.01959248 488.85651607 -24.98081739 488.42038324 -20.875 487.9375 C-18.50463707 487.61352757 -16.13484017 487.28538704 -13.765625 486.953125 C-12.60611328 486.79392578 -11.44660156 486.63472656 -10.25195312 486.47070312 C14.46247563 482.89341944 41.38002717 474.96866882 58.1640625 455.48828125 C62.57502493 449.45478418 65.90064939 442.78402749 69 436 C69.38542969 435.24332031 69.77085937 434.48664063 70.16796875 433.70703125 C72.56749779 425.90011283 70.35884908 418.83434071 67.9375 411.3125 C64.57158581 400.38541143 61.8841726 389.39309194 59.39819336 378.24145508 C56.01855779 362.30293602 56.01855779 362.30293602 45 351 C38.49997782 346.90653365 31.80996105 343.36183271 24.875 340.0625 C12.03254016 333.75272 1.3435652 324.85344109 -5 312 C-5.54914063 311.14341797 -5.54914063 311.14341797 -6.109375 310.26953125 C-8.71095816 303.64005838 -7.99459911 293.77561408 -6.1953125 286.9453125 C0.29883653 272.92690803 14.88097165 261.59698534 29 256 C29.66 256 30.32 256 31 256 C30.72736328 254.75126099 30.72736328 254.75126099 30.44921875 253.47729492 C29.77584394 250.38602972 29.1052463 247.29417889 28.43652344 244.2019043 C28.14661943 242.86409782 27.85561216 241.52652992 27.56347656 240.18920898 C27.14357641 238.26609487 26.7279812 236.3420424 26.3125 234.41796875 C26.06113281 233.26063232 25.80976563 232.1032959 25.55078125 230.91088867 C25 228 25 228 25 225 C23.80375 225.0825 22.6075 225.165 21.375 225.25 C16.86803136 225.24203716 14.48711965 223.93235061 11 221 C7.13095466 216.89669605 5.72496206 212.93115282 4.25 207.625 C4.02957031 206.89539063 3.80914062 206.16578125 3.58203125 205.4140625 C2.26982908 200.84988105 1.62951973 196.79234155 2 192 C2.53625 191.0925 3.0725 190.185 3.625 189.25 C7.22210633 180.74774866 1.18971714 168.212626 -1.26171875 159.61376953 C-2.62337438 154.79304032 -3.93449453 149.958486 -5.25 145.125 C-5.50813477 144.17971436 -5.76626953 143.23442871 -6.03222656 142.26049805 C-9.13080268 130.89458251 -9.13080268 130.89458251 -9.0625 126.25 C-9.05347656 125.45078125 -9.04445313 124.6515625 -9.03515625 123.828125 C-9.02355469 123.22484375 -9.01195312 122.6215625 -9 122 C-10.30710937 121.62875 -10.30710937 121.62875 -11.640625 121.25 C-15.20496196 119.92373508 -17.71748221 118.27857691 -20.75 116 C-21.69359375 115.29875 -22.6371875 114.5975 -23.609375 113.875 C-26 112 -26 112 -28 110 C-70.13409047 100.38507058 -120.00073286 115.50331832 -157 135 C-158.49466797 135.77150391 -158.49466797 135.77150391 -160.01953125 136.55859375 C-176.53557366 145.27736292 -191.1250344 156.76016063 -204.56445312 169.63183594 C-205.81543618 170.82409938 -207.08582325 171.99593722 -208.359375 173.1640625 C-234.92131509 198.27188178 -251.4971309 234.47134113 -258 270 C-258.26707764 271.45128296 -258.26707764 271.45128296 -258.53955078 272.93188477 C-265.97965258 316.73141168 -253.49356821 363.95156302 -228.43603516 400.26660156 C-210.95769558 424.68839111 -189.01497312 445.2010572 -162.81494141 459.97509766 C-161.06930409 460.96086379 -159.33704903 461.9702142 -157.60546875 462.98046875 C-140.28295784 472.72073583 -121.39851517 479.76369676 -102 484 C-101.31728027 484.15017578 -100.63456055 484.30035156 -99.93115234 484.45507812 C-95.63467328 485.38460986 -91.3247889 486.21412407 -87 487 C-85.96488281 487.19464844 -84.92976562 487.38929688 -83.86328125 487.58984375 C-77.52867896 488.72427579 -71.34602013 489.28548644 -64.91015625 489.4609375 C-61.29429591 490.13072103 -59.60508387 491.44608742 -57 494 C-55.9375 496.9375 -55.9375 496.9375 -56 500 C-57.76250148 503.17250267 -58.91068069 504.68402757 -62.4375 505.70703125 C-67.5343483 506.12617996 -72.37551291 505.51229775 -77.4375 504.875 C-78.54496582 504.73594238 -79.65243164 504.59688477 -80.79345703 504.45361328 C-117.17447226 499.64114523 -152.40127048 487.4343413 -183 467 C-183.62551758 466.58395508 -184.25103516 466.16791016 -184.89550781 465.73925781 C-205.56177426 451.84050475 -224.47111693 434.2490524 -239 414 C-239.40734375 413.44231934 -239.8146875 412.88463867 -240.234375 412.31005859 C-264.14657569 379.28889854 -276.51343638 340.01465225 -276.3125 299.375 C-276.31034485 298.58663757 -276.3081897 297.79827515 -276.30596924 296.98602295 C-276.0815735 245.67981754 -255.38070022 198.8939994 -220 162 C-219.24396484 161.20311768 -219.24396484 161.20311768 -218.47265625 160.39013672 C-171.273676 110.85180551 -107.14158406 94.22627746 -41 91 C-41.21076172 90.36731201 -41.42152344 89.73462402 -41.63867188 89.08276367 C-45.96008326 75.53513899 -45.10069866 62.88262361 -39 50 C-36.37335676 44.92152115 -33.60354459 39.92316757 -30.81201172 34.93383789 C-26.90392837 27.89136682 -23.77538788 20.97748273 -21.24609375 13.33984375 C-19.53437066 8.75199659 -17.55357084 4.45941503 -13.9375 1.0625 C-9.29151878 -0.61796129 -4.87686737 -0.62319553 0 0 Z M14.0703125 284.7421875 C10.15038652 289.01712565 7.88679809 293.1638994 7.5 299 C7.93202827 306.12149831 11.8336602 311.55118204 16.91796875 316.29296875 C23.66055352 321.82112925 31.40392108 325.84165012 39.0625 329.9375 C39.81321777 330.33952637 40.56393555 330.74155273 41.33740234 331.15576172 C44.97131037 333.2524102 44.97131037 333.2524102 49 334 C47.7334063 325.79587266 46.11149403 317.74366151 44.1796875 309.671875 C43.91616486 308.55685608 43.65264221 307.44183716 43.38113403 306.29302979 C42.54945905 302.7777967 41.71232989 299.26388988 40.875 295.75 C40.30562636 293.34774231 39.73661265 290.94539928 39.16796875 288.54296875 C37.78280057 282.69432059 36.39316803 276.84674743 35 271 C28.16048006 271 18.75028331 280.30298689 14.0703125 284.7421875 Z " fill="#010101" transform="translate(322,0)"/>
<path d="M0 0 C-3.05202664 1.70693242 -6.19828544 2.72643537 -9.53222656 3.74951172 C-43.45127231 14.27173441 -75.12378805 33.64539936 -100 59 C-99.33355469 59.14695313 -98.66710937 59.29390625 -97.98046875 59.4453125 C-86.53529057 62.23057264 -76.21773228 67.10212109 -69.5703125 77.1640625 C-68.2703673 79.40242967 -67.11624728 81.66528499 -66 84 C-65.51853516 84.90298828 -65.51853516 84.90298828 -65.02734375 85.82421875 C-61.21107468 94.00700964 -61.80490183 104.48550292 -64.625 112.875 C-69.64450957 124.70419388 -77.09339019 132.43813221 -88.60546875 138.0546875 C-97.61507202 141.61149662 -109.33657059 141.47389165 -118.375 138.0625 C-127.25736141 133.79654955 -133.60691084 127.08963374 -139 119 C-139.66 118.67 -140.32 118.34 -141 118 C-141.23783203 118.82177734 -141.23783203 118.82177734 -141.48046875 119.66015625 C-143.04019411 124.95977557 -144.7276842 130.20551757 -146.5 135.4375 C-148.57194202 141.56641314 -150.39713857 147.73189963 -152 154 C-151.071875 153.835 -150.14375 153.67 -149.1875 153.5 C-134.75125819 151.48767538 -122.44472854 154.30815358 -110.48046875 162.78515625 C-101.80679433 169.981203 -95.24249324 179.98280219 -93.68408203 191.29272461 C-93.52836557 193.6212579 -93.4816692 195.91644082 -93.5 198.25 C-93.50354492 199.07266357 -93.50708984 199.89532715 -93.51074219 200.74291992 C-93.77404047 210.52406944 -96.90196195 219.23886066 -103 227 C-103.39445312 227.54785156 -103.78890625 228.09570312 -104.1953125 228.66015625 C-111.53988402 238.20809922 -122.37512528 242.91510399 -134 245 C-138.36119272 245.27482723 -142.63936426 245.26076891 -147 245 C-143.95983449 254.31125201 -140.57167484 263.32939746 -136.375 272.1875 C-136.00318604 272.97616455 -135.63137207 273.7648291 -135.24829102 274.57739258 C-133.58935585 278.01346895 -131.89040625 281.27897769 -129.7265625 284.42578125 C-128 287 -128 287 -128 289 C-127.34 289 -126.68 289 -126 289 C-126.04382813 288.13117188 -126.08765625 287.26234375 -126.1328125 286.3671875 C-125.79878846 277.89869575 -120.9010477 268.99163396 -115 263 C-105.85292868 255.15735258 -96.21733143 251.23079444 -84.12890625 251.6875 C-74.08115231 252.69102099 -64.97893955 256.86431606 -57.890625 264.17578125 C-49.25774198 274.85620704 -47.05051265 284.42634282 -48 298 C-50.31359181 309.40931275 -56.434979 318.38674771 -66 325 C-73.98268056 329.32920122 -82.03224885 331.03090431 -91 332 C-59.57807015 358.34322108 -24.1677071 376.35631619 16 385 C15.67 386.65 15.34 388.3 15 390 C12.22949974 390.1946838 9.45886998 390.38102792 6.6875 390.5625 C5.90181641 390.61857422 5.11613281 390.67464844 4.30664062 390.73242188 C3.1706543 390.80493164 3.1706543 390.80493164 2.01171875 390.87890625 C1.31522217 390.9260376 0.61872559 390.97316895 -0.09887695 391.02172852 C-2 391 -2 391 -5 390 C-5.68132451 388.33927151 -6.34742127 386.672233 -7 385 C-10.34034687 382.77310209 -11.5847291 382.72899992 -15.5 382.5625 C-70.8295856 378.94738865 -124.63920038 352.9373121 -162 312 C-165.858915 307.48013599 -169.46231213 302.77339108 -173 298 C-173.77214844 296.96101563 -174.54429687 295.92203125 -175.33984375 294.8515625 C-202.57852764 256.84187005 -215.02908446 208.75397988 -207.375 162.375 C-204.20158054 145.00394653 -198.73126684 128.84946908 -191 113 C-190.68836914 112.35224609 -190.37673828 111.70449219 -190.05566406 111.03710938 C-176.95976209 84.12468438 -156.05756038 60.605128 -132 43 C-130.95328125 42.23171875 -129.9065625 41.4634375 -128.828125 40.671875 C-91.58985642 14.17897745 -45.96769843 -1.68631502 0 0 Z " fill="#B3DAFC" transform="translate(270,108)"/>
<path d="M0 0 C0.74508667 1.70318604 0.74508667 1.70318604 1.44873047 3.94628906 C1.71595917 4.78516663 1.98318787 5.62404419 2.2585144 6.48834229 C2.54187653 7.40484558 2.82523865 8.32134888 3.1171875 9.265625 C3.41561554 10.21000427 3.71404358 11.15438354 4.02151489 12.12738037 C4.97983433 15.16605485 5.9274817 18.20794227 6.875 21.25 C7.50582203 23.255425 8.13732458 25.26063607 8.76953125 27.265625 C11.59460869 36.23909523 14.38387114 45.22324621 17.14111328 54.21777344 C18.56244428 58.82194855 20.03121922 63.41078739 21.5 68 C23.72005684 74.95664869 25.91528614 81.91918464 28.05078125 88.90234375 C29.12785909 92.4172521 30.21736692 95.92818555 31.3125 99.4375 C31.51399658 100.08396484 31.71549316 100.73042969 31.9230957 101.39648438 C33.22190889 105.55030615 34.54252902 109.69669178 35.875 113.83984375 C36.3558606 115.33849976 36.3558606 115.33849976 36.84643555 116.86743164 C37.48341808 118.85049654 38.1228487 120.83277698 38.76489258 122.81420898 C39.05517334 123.71856689 39.3454541 124.6229248 39.64453125 125.5546875 C39.90596924 126.36405762 40.16740723 127.17342773 40.43676758 128.00732422 C41 130 41 130 41 132 C41.59167969 131.98195313 42.18335938 131.96390625 42.79296875 131.9453125 C45.70549953 132.16387109 47.45475908 132.52307927 50 134 C53.13413492 139.63142507 55.75871809 146.45605644 55 153 C54.319375 153.556875 53.63875 154.11375 52.9375 154.6875 C50.60440151 157.47216593 50.76987321 158.17597854 51.0625 161.6875 C51.45136009 164.94220565 52.26831744 167.86813444 53.33984375 170.94921875 C55.48905406 177.23287723 56.98470242 183.6642024 58.5 190.125 C58.65374084 190.77874603 58.80748169 191.43249207 58.96588135 192.10604858 C61.63261718 203.53171322 63.53652966 214.96084859 64.7512207 226.63378906 C64.9109295 228.15282508 65.08289529 229.67065062 65.27026367 231.18652344 C66.06288171 237.65311777 66.33230077 244.11676942 66.5625 250.625 C66.6035083 251.76839844 66.6445166 252.91179687 66.68676758 254.08984375 C66.90221676 260.39184392 67.11630098 266.69448664 67.1875 273 C67.20167969 274.134375 67.21585937 275.26875 67.23046875 276.4375 C67 279 67 279 65 281 C62.55932617 280.90063477 62.55932617 280.90063477 60 280 C58.40356445 278.08178711 58.40356445 278.08178711 57.05078125 275.58984375 C56.54627441 274.68218262 56.04176758 273.77452148 55.52197266 272.83935547 C55.01972168 271.90236816 54.5174707 270.96538086 54 270 C53.03583841 268.29258336 52.07100336 266.58554683 51.10546875 264.87890625 C44.618529 253.12620112 38.34344525 241.32144234 33 229 C32.46560303 227.77144287 32.46560303 227.77144287 31.92041016 226.51806641 C19.84453963 198.10265998 13.69726084 166.95238001 6.89648438 136.94335938 C5.90657628 132.57924248 4.8992003 128.21920988 3.890625 123.859375 C3.70690338 123.06504562 3.52318176 122.27071625 3.33389282 121.45231628 C2.95570029 119.81719697 2.5774958 118.18208043 2.19927979 116.54696655 C1.23775975 112.38720953 0.2790531 108.2268046 -0.6796875 104.06640625 C-2.5787016 95.82673027 -4.47934075 87.58743066 -6.38110352 79.34838867 C-7.12427195 76.12861275 -7.86691626 72.90871663 -8.60913086 69.6887207 C-10.3553983 62.11440489 -12.10523051 54.5409624 -13.86691284 46.97021484 C-14.69319752 43.41835701 -15.51756763 39.86605599 -16.34179688 36.3137207 C-16.73293285 34.63039331 -17.12499311 32.94728036 -17.51806641 31.2644043 C-19.55519542 22.54178823 -21.53801786 13.84214548 -23 5 C-18.45865796 3.44155809 -13.88162448 2.07277503 -9.25 0.8125 C-8.24259766 0.52729492 -8.24259766 0.52729492 -7.21484375 0.23632812 C-2.2329444 -1.1164722 -2.2329444 -1.1164722 0 0 Z " fill="#FCC04F" transform="translate(384,216)"/>
<path d="M0 0 C9.67346298 6.85391098 16.14225782 16.51375809 19 28 C19.42685856 31.09785837 19.52454569 34.12526941 19.5 37.25 C19.49645508 38.07266357 19.49291016 38.89532715 19.48925781 39.74291992 C19.22595953 49.52406944 16.09803805 58.23886066 10 66 C9.60554688 66.54785156 9.21109375 67.09570312 8.8046875 67.66015625 C2.6999624 75.59629888 -6.335697 80.69993624 -16 83 C-19.49154725 83.4133884 -22.92414937 83.47772921 -26.4375 83.4375 C-27.36401367 83.42992676 -28.29052734 83.42235352 -29.24511719 83.41455078 C-35.86619373 83.25445768 -41.26739097 82.51353456 -47 79 C-47.77214844 78.55269531 -48.54429688 78.10539062 -49.33984375 77.64453125 C-60.86617345 70.49091898 -67.58547123 61.37219907 -71.2734375 48.359375 C-73.98546091 35.8199119 -71.49926694 22.96685838 -64.59765625 12.21875 C-57.48443711 2.34024518 -48.02592826 -4.51951388 -36 -7 C-35.03320312 -7.27263672 -35.03320312 -7.27263672 -34.046875 -7.55078125 C-21.86769054 -10.22369387 -10.34506674 -6.20151531 0 0 Z " fill="#030303" transform="translate(157,269)"/>
<path d="M0 0 C5.58870363 4.38288577 8.96292544 9.6477305 12 16 C12.32097656 16.60199219 12.64195312 17.20398438 12.97265625 17.82421875 C16.78892532 26.00700964 16.19509817 36.48550292 13.375 44.875 C8.35549043 56.70419388 0.90660981 64.43813221 -10.60546875 70.0546875 C-19.61507202 73.61149662 -31.33657059 73.47389165 -40.375 70.0625 C-51.184707 64.84857883 -59.77048362 55.74856358 -63.875 44.4375 C-66.51023076 34.22994953 -66.2847852 23.30556874 -61.67578125 13.75 C-55.45078322 3.53461862 -46.4312198 -4.45813684 -34.7421875 -7.53515625 C-21.56868409 -9.7682715 -11.06199163 -7.17623971 0 0 Z " fill="#030203" transform="translate(192,176)"/>
<path d="M0 0 C0.46148437 0.35191406 0.92296875 0.70382813 1.3984375 1.06640625 C3.58907243 2.72453506 5.79249173 4.36440394 8 6 C9.01707031 6.75990234 9.01707031 6.75990234 10.0546875 7.53515625 C14.98340499 11.10452995 20.0837486 14.24970156 25.3347168 17.31469727 C49.1220376 31.24020494 49.1220376 31.24020494 53.6015625 44.82421875 C56.10537658 58.49700743 52.49404695 70.27487182 45.66015625 82.0390625 C41.84211534 86.54884259 34.90023432 87.10373437 29.375 88.4375 C22.98446541 89.99206337 16.64998103 91.59678031 10.38671875 93.6171875 C3.27061403 94.75855945 -1.50543372 91.89519099 -7.13623047 87.92822266 C-14.70045449 82.32420641 -19.81425597 74.82933213 -23 66 C-23.43359375 62.203125 -23.43359375 62.203125 -23.4375 58.25 C-23.45683594 56.95578125 -23.47617187 55.6615625 -23.49609375 54.328125 C-22.81441971 44.40365016 -17.36203439 35.63448931 -12.5625 27.1875 C-8.21711841 19.38402948 -4.40210317 11.8428759 -1.734375 3.31640625 C-1 1 -1 1 0 0 Z " fill="#E29A73" transform="translate(317,16)"/>
<path d="M0 0 C8.69090777 4.94642091 14.56459603 11.74878718 18.9375 20.671875 C19.31003906 21.40792969 19.68257813 22.14398438 20.06640625 22.90234375 C23.08926315 32.51313094 22.0397787 45.10329593 17.6171875 54.0234375 C11.8976077 63.0417517 4.27352613 70.40786675 -6.0625 73.671875 C-17.48350631 75.85818192 -27.88049201 75.72184928 -38.0625 69.671875 C-47.19597452 62.98348077 -54.93660363 54.06313638 -57.0625 42.671875 C-58.19812159 30.13271996 -55.55828098 19.82027254 -48.0625 9.671875 C-35.81980564 -4.44356027 -16.65789938 -7.41276523 0 0 Z " fill="#030404" transform="translate(293.0625,393.328125)"/>
<path d="M0 0 C8.09680654 5.43217953 13.87814316 13.3758739 16.89453125 22.66796875 C18.94054034 33.47166163 17.52636701 44.61916982 11.9921875 54.1484375 C5.84460297 62.91630397 -2.20915559 69.26695392 -12.6875 71.875 C-24.70771404 73.39536497 -34.88755903 72.08240259 -44.9375 65.0625 C-53.38815967 58.2644895 -58.08353896 50.36840896 -60.6875 39.875 C-61.94146976 27.90288868 -59.69653587 18.52145078 -53 8.5625 C-39.56959308 -7.91715748 -17.78838989 -10.43101503 0 0 Z " fill="#020304" transform="translate(204.6875,366.125)"/>
<path d="M0 0 C8.48535934 4.92792347 15.56784259 12.75531794 19 22 C21.61345284 32.10064207 21.24929526 43.88386454 16.6796875 53.28125 C10.51628713 63.25735851 2.29532078 70.45857835 -9.10546875 73.48828125 C-21.97355495 75.76320607 -32.52119509 73.56872227 -43.3125 66.3125 C-51.74091141 59.44360754 -57.18747955 49.33781352 -58.37890625 38.578125 C-58.79869089 26.17416607 -55.06420026 16.40547381 -47 7 C-34.27997435 -5.52771425 -15.8648924 -7.53465391 0 0 Z " fill="#030303" transform="translate(274,132)"/>
<path d="M0 0 C2 1 2 1 2.74508667 2.70318604 C3.09339035 3.81352203 3.09339035 3.81352203 3.44873047 4.94628906 C3.71595917 5.78516663 3.98318787 6.62404419 4.2585144 7.48834229 C4.54187653 8.40484558 4.82523865 9.32134888 5.1171875 10.265625 C5.41561554 11.21000427 5.71404358 12.15438354 6.02151489 13.12738037 C6.97983433 16.16605485 7.9274817 19.20794227 8.875 22.25 C9.50582203 24.255425 10.13732458 26.26063607 10.76953125 28.265625 C13.59460869 37.23909523 16.38387114 46.22324621 19.14111328 55.21777344 C20.56244428 59.82194855 22.03121922 64.41078739 23.5 69 C25.72005684 75.95664869 27.91528614 82.91918464 30.05078125 89.90234375 C31.12785909 93.4172521 32.21736692 96.92818555 33.3125 100.4375 C33.51399658 101.08396484 33.71549316 101.73042969 33.9230957 102.39648438 C35.22190889 106.55030615 36.54252902 110.69669178 37.875 114.83984375 C38.3558606 116.33849976 38.3558606 116.33849976 38.84643555 117.86743164 C39.48341808 119.85049654 40.1228487 121.83277698 40.76489258 123.81420898 C41.05517334 124.71856689 41.3454541 125.6229248 41.64453125 126.5546875 C41.90596924 127.36405762 42.16740723 128.17342773 42.43676758 129.00732422 C43 131 43 131 43 133 C43.59167969 132.98195313 44.18335938 132.96390625 44.79296875 132.9453125 C47.70549953 133.16387109 49.45475908 133.52307927 52 135 C55.13413492 140.63142507 57.75871809 147.45605644 57 154 C56.319375 154.556875 55.63875 155.11375 54.9375 155.6875 C52.60440151 158.47216593 52.76987321 159.17597854 53.0625 162.6875 C53.45136009 165.94220565 54.26831744 168.86813444 55.33984375 171.94921875 C57.48905406 178.23287723 58.98470242 184.6642024 60.5 191.125 C60.65374084 191.77874603 60.80748169 192.43249207 60.96588135 193.10604858 C63.63135468 204.52630401 65.53654925 215.95025666 66.74926758 227.61791992 C66.91473473 229.18993846 67.09398574 230.760575 67.2878418 232.3293457 C67.91358294 237.43344106 68.12512165 242.4227076 68.0625 247.5625 C68.05798828 248.28501953 68.05347656 249.00753906 68.04882812 249.75195312 C68.03724279 251.50133944 68.01931762 253.25068199 68 255 C56.3264059 240.27908214 50.10647316 219.57007987 44 202 C43.61666504 200.93531494 43.23333008 199.87062988 42.83837891 198.77368164 C38.82138128 187.28029577 36.05109929 175.52604093 33.25 163.6875 C32.69092895 161.34476647 32.13167859 159.00207573 31.57226562 156.65942383 C24.19310513 125.65978325 17.12004538 94.58766436 10.03155518 63.52056885 C9.01370883 59.05962585 7.99497731 54.59888532 6.97607422 50.13818359 C3.31143125 34.09347761 -0.34798451 18.04758545 -4 2 C-2.125 0.9375 -2.125 0.9375 0 0 Z " fill="#FBCD62" transform="translate(382,215)"/>
<path d="M0 0 C8.92542204 -0.48971342 17.3649569 2.76997915 24.29296875 8.34375 C31.23802309 15.51626245 33.43005013 23.23966416 33.46484375 32.9296875 C33.27932594 41.52534621 30.10821019 47.23847785 24.39453125 53.56640625 C20.15530751 57.55578981 15.57700963 59.46385532 10.08203125 61.19140625 C9.09203125 61.52140625 8.10203125 61.85140625 7.08203125 62.19140625 C-2.01504032 62.82979724 -9.98081418 60.75842091 -17.1015625 54.91796875 C-24.41049087 47.97055726 -27.89071667 40.43090275 -28.48046875 30.37890625 C-28.23960864 21.79552771 -24.32645105 14.42693085 -18.54296875 8.19140625 C-13.14699273 3.29682623 -7.20040003 0.71857353 0 0 Z " fill="#FD93D3" transform="translate(127.91796875,275.80859375)"/>
<path d="M0 0 C17.11177184 9.20405909 35.75588436 21.51321458 45 39 C45.54140625 40.02287109 45.54140625 40.02287109 46.09375 41.06640625 C50.38731414 51.22386586 49.2074309 65.31457004 45.26171875 75.32421875 C40.29246597 85.86272698 33.81171888 94.89968914 23 100 C22.01 100 21.02 100 20 100 C18.04171751 94.22822004 16.15814713 88.43364893 14.3125 82.625 C14.08602783 81.92310547 13.85955566 81.22121094 13.6262207 80.49804688 C12.69642586 77.55173946 12 75.10951834 12 72 C12.928125 71.4225 13.85625 70.845 14.8125 70.25 C18.73776075 67.4792277 19.62928065 65.56906451 21 61 C21.29357463 55.27229912 20.70464419 50.47737998 19.0625 45 C18.89943359 44.34 18.73636719 43.68 18.56835938 43 C17.19937908 38.40381697 15.32176294 36.23913518 11.5625 33.26171875 C5.99372327 28.6397978 4.61918698 23.67764113 2.9375 16.8125 C2.64423828 15.74580078 2.35097656 14.67910156 2.04882812 13.58007812 C0.80957699 8.93941636 -0.1697427 4.82647805 0 0 Z " fill="#D8EAFB" transform="translate(386,138)"/>
<path d="M0 0 C0.92602539 1.60058594 0.92602539 1.60058594 1.53515625 3.734375 C1.77379395 4.54970703 2.01243164 5.36503906 2.25830078 6.20507812 C2.50306152 7.12740234 2.74782227 8.04972656 3 9 C3.27183105 10.00998047 3.54366211 11.01996094 3.82373047 12.06054688 C4.71617738 15.45194651 5.58070723 18.84942559 6.4375 22.25 C8.47557956 30.33819888 10.65496423 38.31951532 13.25024414 46.24902344 C14 49 14 49 14 53 C7.31954014 55.32012247 0.5766728 57.2842034 -6.25 59.125 C-7.70019531 59.52138672 -7.70019531 59.52138672 -9.1796875 59.92578125 C-13.4388015 61.08149125 -17.66345784 62.17081289 -22 63 C-25.43116721 52.30283165 -28.3684775 41.48526904 -31.28173828 30.63818359 C-31.93793586 28.22796229 -32.61694382 25.82602513 -33.30859375 23.42578125 C-33.50130859 22.74435059 -33.69402344 22.06291992 -33.89257812 21.36083984 C-34.39975117 19.57073714 -34.91629862 17.7832977 -35.43359375 15.99609375 C-36.01326069 12.92985552 -35.8479486 10.97613333 -35 8 C-30.67682201 6.63277587 -26.34264639 5.30389892 -22 4 C-21.23510254 3.77022461 -20.47020508 3.54044922 -19.68212891 3.30371094 C-17.2706009 2.58625573 -14.85488386 1.88494493 -12.4375 1.1875 C-11.66422363 0.95651611 -10.89094727 0.72553223 -10.09423828 0.48754883 C-3.36153157 -1.4266811 -3.36153157 -1.4266811 0 0 Z " fill="#3E6C8C" transform="translate(364,116)"/>
<path d="M0 0 C5.79427192 3.78856241 8.83238567 8.51560478 11 15 C12.47510393 24.11999038 9.79051774 30.73214934 4.875 38.25 C-0.86179848 43.73737246 -6.59495885 46.28952458 -14.5625 46.625 C-21.7064413 46.31402844 -26.59937513 44.21377735 -31.77734375 39.3203125 C-37.90620665 32.57706481 -39.62963484 26.53634615 -39.41015625 17.48046875 C-38.61623526 10.74348205 -35.55739943 6.20449258 -30.6875 1.625 C-21.17392118 -5.75622494 -10.29912034 -6.0012182 0 0 Z " fill="#E9615D" transform="translate(181,187)"/>
<path d="M0 0 C5.16659046 3.9777191 9.68145943 8.84096698 10.81640625 15.3984375 C11.69346723 23.77924247 10.92171486 30.50136193 5.81640625 37.3984375 C0.37132274 42.68982914 -5.32821881 45.6729411 -12.99609375 45.7734375 C-19.78262848 45.62373453 -24.14033259 44.22695241 -29.12109375 39.59765625 C-35.17756579 33.09956646 -37.820509 27.03479351 -37.52734375 18.10546875 C-36.57411258 10.5987733 -32.05177683 4.95320794 -26.18359375 0.3984375 C-18.59413833 -4.22408178 -7.66663975 -4.51355409 0 0 Z " fill="#76BFA1" transform="translate(288.18359375,407.6015625)"/>
<path d="M0 0 C5.63444025 4.41146097 9.41207795 9.23048237 10.3125 16.53515625 C10.65864343 24.22603062 9.32225276 31.18294364 4.1640625 37.109375 C-2.52970036 43.31585244 -8.82075503 44.48241998 -17.80859375 44.30859375 C-24.08812111 43.70139343 -28.07922982 41.27182185 -32.3125 36.6875 C-37.82638412 29.56602568 -39.01538979 22.84333665 -38 14 C-36.16581852 6.89560374 -30.81716394 2.14237569 -25 -2 C-16.41368738 -5.67984827 -7.87879239 -4.88830185 0 0 Z " fill="#2D80D1" transform="translate(197,379)"/>
<path d="M0 0 C5.53329829 3.1491762 9.112952 6.98213346 12 12.625 C13.62082999 21.21539895 13.64491604 29.4962127 8.625 36.9375 C4.09361962 42.05212736 -1.31162691 45.48289611 -8.203125 46.25390625 C-14.78824404 46.51036189 -20.06069612 46.02630708 -25.375 41.9375 C-31.36917079 36.36630497 -35.36673331 30.4788192 -35.875 22.125 C-35.62710833 15.32863681 -33.01256576 9.81436104 -28.4375 4.82421875 C-20.23122891 -2.68265423 -10.39710636 -4.78172517 0 0 Z " fill="#FCBF4F" transform="translate(266.375,145.0625)"/>
<path d="M0 0 C0.49628906 0.37511719 0.99257813 0.75023438 1.50390625 1.13671875 C5.95741524 4.49163919 10.45004098 7.77711236 15 11 C13.74915009 15.02764821 12.26460804 18.63368906 10.25 22.3359375 C9.7240625 23.31820312 9.198125 24.30046875 8.65625 25.3125 C7.55535092 27.34812472 6.45120082 29.38199472 5.34375 31.4140625 C-0.15102999 41.70330737 -3.2729911 52.04238116 0.125 63.67578125 C4.00511328 73.98233215 8.60998522 81.68650443 17 89 C17.99 89.99 17.99 89.99 19 91 C17.31800908 91.53835876 15.629004 92.05482114 13.9375 92.5625 C12.99777344 92.85253906 12.05804688 93.14257812 11.08984375 93.44140625 C4.45192929 94.64143377 0.0063507 92.86972961 -5.4375 89.125 C-13.79227345 83.23895524 -19.51619608 75.65540907 -23 66 C-23.43359375 62.203125 -23.43359375 62.203125 -23.4375 58.25 C-23.45683594 56.95578125 -23.47617187 55.6615625 -23.49609375 54.328125 C-22.81441971 44.40365016 -17.36203439 35.63448931 -12.5625 27.1875 C-8.21711841 19.38402948 -4.40210317 11.8428759 -1.734375 3.31640625 C-1 1 -1 1 0 0 Z " fill="#DA8657" transform="translate(317,16)"/>
<path d="M0 0 C-0.51949219 0.51046875 -1.03898437 1.0209375 -1.57421875 1.546875 C-8.8370194 9.11844536 -13.19658845 16.90516942 -13.5 27.5625 C-13.01454864 38.25520496 -10.214948 48.01523526 -2.3125 55.625 C-1 57 -1 57 -1 59 C-8.16686712 61.38895571 -15.19775158 59.87037553 -22 57 C-30.00365351 52.44472912 -35.99753946 45.38369389 -38.51953125 36.47265625 C-40.50801008 26.2392652 -38.70686924 18.70518023 -33 10 C-28.37042252 4.01068648 -22.76064455 0.46481371 -15.5625 -1.75 C-4.86891324 -2.79327676 -4.86891324 -2.79327676 0 0 Z " fill="#FB70C4" transform="translate(139,278)"/>
<path d="M0 0 C0.92602539 1.60058594 0.92602539 1.60058594 1.53515625 3.734375 C1.77379395 4.54970703 2.01243164 5.36503906 2.25830078 6.20507812 C2.50306152 7.12740234 2.74782227 8.04972656 3 9 C3.40774658 10.5149707 3.40774658 10.5149707 3.82373047 12.06054688 C4.71617738 15.45194651 5.58070723 18.84942559 6.4375 22.25 C8.47557956 30.33819888 10.65496423 38.31951532 13.25024414 46.24902344 C14 49 14 49 14 53 C12.67037928 53.48937429 11.33600575 53.96583581 10 54.4375 C9.2575 54.70433594 8.515 54.97117188 7.75 55.24609375 C4.17696444 56.22563333 0.68290037 56.59815812 -3 57 C-6.70163417 43.89039988 -10.36446499 30.77028568 -13.9375 17.625 C-14.24373291 16.50883301 -14.54996582 15.39266602 -14.86547852 14.24267578 C-15.14576904 13.2061084 -15.42605957 12.16954102 -15.71484375 11.1015625 C-15.96355225 10.18713379 -16.21226074 9.27270508 -16.46850586 8.33056641 C-17 6 -17 6 -17 3 C-14.92085336 2.29994051 -12.83648414 1.61537756 -10.75 0.9375 C-9.58984375 0.55464844 -8.4296875 0.17179687 -7.234375 -0.22265625 C-4.07468718 -0.98204982 -2.91609248 -1.20410522 0 0 Z " fill="#46799B" transform="translate(364,116)"/>
<path d="M0 0 C5.68347624 1.98260799 8.68647005 5.452266 11.5625 10.5625 C14.44598419 16.84270989 14.91824973 22.77389984 12.953125 29.421875 C10.51146734 35.38592404 7.23227465 39.95133442 2.125 43.9375 C-0.3125 44.9375 -0.3125 44.9375 -2.30078125 44.234375 C-4.5768469 42.76708608 -5.54956074 41.49774729 -6.9375 39.1875 C-7.34226563 38.53265625 -7.74703125 37.8778125 -8.1640625 37.203125 C-12.30965652 29.02474223 -12.78074429 19.67489126 -10 10.9375 C-5.66550017 -0.15312163 -5.66550017 -0.15312163 0 0 Z " fill="#F57A67" transform="translate(178.3125,186.0625)"/>
<path d="M0 0 C0.94921875 2.3984375 0.94921875 2.3984375 1.6875 5.375 C1.93886719 6.35210937 2.19023437 7.32921875 2.44921875 8.3359375 C3 11 3 11 3 14 C-7.57049814 16.96356343 -18.15493091 19.87551298 -28.75 22.75 C-30.42715088 23.20838257 -30.42715088 23.20838257 -32.13818359 23.67602539 C-33.73267334 24.10709595 -33.73267334 24.10709595 -35.359375 24.546875 C-36.30264648 24.80307617 -37.24591797 25.05927734 -38.21777344 25.32324219 C-41.13051536 26.03174698 -44.03837854 26.54226507 -47 27 C-47.508783 25.44033782 -48.00663469 23.87710759 -48.5 22.3125 C-48.7784375 21.44238281 -49.056875 20.57226562 -49.34375 19.67578125 C-49.99850805 17.00608323 -50.11831495 14.73603316 -50 12 C-42.63328823 9.42400697 -35.18669152 7.41976426 -27.625 5.5 C-25.30451378 4.9069293 -22.98419914 4.31318681 -20.6640625 3.71875 C-18.99005371 3.29335937 -18.99005371 3.29335937 -17.28222656 2.859375 C-13.23710283 1.80025305 -9.22586077 0.63492266 -5.22021484 -0.56445312 C-3 -1 -3 -1 0 0 Z " fill="#5591B2" transform="translate(390,183)"/>
<path d="M0 0 C5.46067285 2.06292086 8.82146051 6.40011118 11.75 11.3125 C13.95937909 19.11030856 13.54199117 26.33595721 10.21875 33.75390625 C7.86621862 37.6159786 4.81314171 40.89809033 0.8125 43.0625 C-1.2734375 42.97265625 -1.2734375 42.97265625 -3.1875 42.0625 C-4.6015625 40.390625 -4.6015625 40.390625 -5.8125 38.3125 C-6.21726563 37.63703125 -6.62203125 36.9615625 -7.0390625 36.265625 C-10.84212236 28.96995914 -11.13798516 22.21411845 -10.1875 14.0625 C-5.23596537 0.14959901 -5.23596537 0.14959901 0 0 Z " fill="#508FD7" transform="translate(194.1875,377.9375)"/>
<path d="M0 0 C5.80654058 1.827985 9.05658342 6.54031176 11.8125 11.8125 C13.45592978 21.30787205 12.99428425 29.00132783 7.375 37.0625 C4.90391848 39.98639751 2.75095701 41.89470037 -1.1875 42.375 C-6.02885005 39.76811921 -7.9812916 34.68709738 -9.9375 29.75 C-11.75367852 20.00867886 -10.9149211 11.96476899 -5.5 3.625 C-2.89804965 0.06900118 -2.89804965 0.06900118 0 0 Z " fill="#93D4A2" transform="translate(286.625,407.9375)"/>
<path d="M0 0 C3.29234294 0 5.37542032 0.45818036 7.88671875 2.63671875 C13.99835701 9.36336463 15.49878917 14.93615545 15.30859375 23.96484375 C14.6523462 30.41932918 12.2509156 35.16179214 7.5625 39.625 C5.28741832 41.35192767 4.24395995 41.96514858 1.375 42.375 C-3.45983777 39.5758834 -5.81817932 34.30314578 -7.3125 29.0625 C-9.080853 20.23790348 -7.82920315 13.1629297 -4 5 C-1.75 1.8125 -1.75 1.8125 0 0 Z " fill="#FDCE63" transform="translate(264,146)"/>
<path d="M0 0 C3.44419134 9.41002278 3.44419134 9.41002278 3 14 C3.99 14.33 4.98 14.66 6 15 C2.2093684 16.00395221 -1.58266824 17.00249094 -5.375 18 C-6.45523437 18.28617188 -7.53546875 18.57234375 -8.6484375 18.8671875 C-9.6796875 19.13789063 -10.7109375 19.40859375 -11.7734375 19.6875 C-12.72653809 19.93886719 -13.67963867 20.19023437 -14.66162109 20.44921875 C-17 21 -17 21 -19 21 C-19.508783 19.44033782 -20.00663469 17.87710759 -20.5 16.3125 C-20.7784375 15.44238281 -21.056875 14.57226562 -21.34375 13.67578125 C-21.99850805 11.00608323 -22.11831495 8.73603316 -22 6 C-4.76595745 0 -4.76595745 0 0 0 Z " fill="#45789B" transform="translate(362,189)"/>
</svg>
